<svg xmlns="http://www.w3.org/2000/svg" xmlns:xlink="http://www.w3.org/1999/xlink" id="Layer_1" x="0px" y="0px" viewBox="0 0 351.39 86" style="enable-background:new 0 0 351.39 86;" xml:space="preserve"><style type="text/css">	.st0{clip-path:url(#SVGID_1_);}	.st1{fill:#FFFFFF;}	.st2{fill:#00528A;}</style><g>	<g>		<g>			<defs>				<rect id="SVGID_11_" x="21.15" y="6.49" width="64.46" height="38.61"></rect>			</defs>			<clipPath id="SVGID_1_">				<use xlink:href="#SVGID_11_" style="overflow:visible;"></use>			</clipPath>			<g class="st0">				<path d="M85.16,24.04L20.7,6.49v38.42h15.82V25.35h0.01c0.07-2.7,2.42-4.87,5.32-4.87s5.25,2.17,5.32,4.87h0.01v19.56h5.62     V29.56h0.01c0.07-2.7,2.42-4.87,5.32-4.87c2.9,0,5.25,2.17,5.32,4.87h0.01v15.35h5.62V33.93h0.01c0.07-2.7,2.42-4.87,5.32-4.87     c2.9,0,5.25,2.17,5.32,4.87h0.01v10.98h5.47V24.04z"></path>				<rect x="69.05" y="44.91" class="st1" width="10.64" height="0.07"></rect>				<rect x="52.79" y="44.91" class="st1" width="10.65" height="0.19"></rect>				<rect x="36.53" y="44.91" class="st1" width="10.65" height="0.14"></rect>			</g>		</g>		<rect x="27.05" y="24.69" class="st2" width="1.26" height="20.23"></rect>		<rect x="29.16" y="24.69" class="st2" width="1.26" height="20.23"></rect>		<rect x="31.22" y="24.69" class="st2" width="1.26" height="20.23"></rect>		<rect x="33.28" y="24.69" class="st2" width="1.26" height="20.23"></rect>		<rect x="35.32" y="24.69" class="st2" width="1.26" height="20.23"></rect>		<rect x="37.42" y="24.69" class="st2" width="1.26" height="20.23"></rect>		<rect x="39.49" y="24.69" class="st2" width="1.26" height="20.23"></rect>		<rect x="41.55" y="24.69" class="st2" width="1.26" height="20.23"></rect>		<g>			<path d="M98.78,39.51c-0.57,0-0.65,0.02-0.79,0.48l-0.93,2.78c-0.14,0.48-0.17,0.67-0.17,0.86c0,0.14,0.31,0.29,0.98,0.41    l0.72,0.12c0.14,0.17,0.19,0.72-0.05,0.84c-0.84-0.05-1.7-0.05-2.7-0.07c-0.81,0-1.36,0.07-2.46,0.07    c-0.26-0.14-0.24-0.65-0.07-0.84l0.65-0.07c0.57-0.07,1.05-0.26,1.46-1.2c0.41-0.96,0.86-2.11,1.51-3.83l2.18-5.84    c0.55-1.51,0.96-2.35,0.89-3.04c1.15-0.26,2.03-1.44,2.08-1.44c0.31,0,0.45,0.12,0.55,0.48c0.19,0.69,0.48,1.58,1.08,3.28    l3.25,9.38c0.5,1.44,0.72,1.99,1.6,2.13l0.91,0.14c0.14,0.12,0.19,0.69-0.02,0.84c-1.15-0.05-2.44-0.07-3.68-0.07    c-1.2,0-2.13,0.02-3.23,0.07c-0.26-0.14-0.31-0.65-0.05-0.84l0.77-0.12c0.55-0.1,0.65-0.26,0.65-0.41c0-0.17-0.17-0.74-0.45-1.63    l-0.65-2.06c-0.12-0.38-0.31-0.43-1.15-0.43H98.78z M101.51,38.24c0.55,0,0.67-0.07,0.48-0.69l-0.62-1.94    c-0.34-1.03-0.77-2.32-0.98-2.82c-0.19,0.55-0.67,1.84-1.03,2.94l-0.6,1.79c-0.22,0.65-0.1,0.72,0.5,0.72H101.51z"></path>			<path d="M111.77,33c0-2.42-0.05-2.7-1.05-2.82l-0.74-0.1c-0.22-0.12-0.22-0.65,0.05-0.81c1.58-0.12,3.45-0.22,5.53-0.22    c2.03,0,3.37,0.24,4.38,0.62c1.46,0.55,2.92,1.82,2.92,4.14c0,3.92-3.95,4.5-5.22,4.5c-0.29,0-0.5,0-0.77-0.02    c-0.19-0.12-0.24-0.5-0.07-0.65c1.99-0.62,2.39-2.03,2.39-3.8c0-1.77-0.91-3.68-3.06-3.68c-0.89,0-0.93,0.26-0.93,1.22v10.1    c0,2.23,0.14,2.42,1.22,2.58l0.77,0.12c0.26,0.12,0.26,0.67,0,0.81c-1.34-0.05-2.51-0.07-3.66-0.07c-1.15,0-2.3,0.02-3.59,0.07    c-0.26-0.14-0.31-0.69-0.05-0.81l0.67-0.12c1.08-0.19,1.22-0.36,1.22-2.58V33z"></path>			<path d="M126.39,33c0-2.42-0.05-2.7-1.05-2.82l-0.74-0.1c-0.22-0.12-0.22-0.65,0.05-0.81c1.58-0.12,3.45-0.22,5.53-0.22    c2.03,0,3.37,0.24,4.38,0.62c1.46,0.55,2.92,1.82,2.92,4.14c0,3.92-3.95,4.5-5.22,4.5c-0.29,0-0.5,0-0.77-0.02    c-0.19-0.12-0.24-0.5-0.07-0.65c1.99-0.62,2.39-2.03,2.39-3.8c0-1.77-0.91-3.68-3.06-3.68c-0.89,0-0.93,0.26-0.93,1.22v10.1    c0,2.23,0.14,2.42,1.22,2.58l0.77,0.12c0.26,0.12,0.26,0.67,0,0.81c-1.34-0.05-2.51-0.07-3.66-0.07c-1.15,0-2.3,0.02-3.59,0.07    c-0.26-0.14-0.31-0.69-0.05-0.81l0.67-0.12c1.08-0.19,1.22-0.36,1.22-2.58V33z"></path>			<path d="M140.94,39.51c-0.57,0-0.65,0.02-0.79,0.48l-0.93,2.78c-0.14,0.48-0.17,0.67-0.17,0.86c0,0.14,0.31,0.29,0.98,0.41    l0.72,0.12c0.14,0.17,0.19,0.72-0.05,0.84c-0.84-0.05-1.7-0.05-2.7-0.07c-0.81,0-1.36,0.07-2.46,0.07    c-0.26-0.14-0.24-0.65-0.07-0.84l0.65-0.07c0.57-0.07,1.05-0.26,1.46-1.2c0.41-0.96,0.86-2.11,1.51-3.83l2.18-5.84    c0.55-1.51,0.96-2.35,0.89-3.04c1.15-0.26,2.03-1.44,2.08-1.44c0.31,0,0.45,0.12,0.55,0.48c0.19,0.69,0.48,1.58,1.08,3.28    l3.25,9.38c0.5,1.44,0.72,1.99,1.6,2.13l0.91,0.14c0.14,0.12,0.19,0.69-0.02,0.84c-1.15-0.05-2.44-0.07-3.68-0.07    c-1.2,0-2.13,0.02-3.23,0.07c-0.26-0.14-0.31-0.65-0.05-0.84l0.77-0.12c0.55-0.1,0.65-0.26,0.65-0.41c0-0.17-0.17-0.74-0.45-1.63    l-0.65-2.06c-0.12-0.38-0.31-0.43-1.15-0.43H140.94z M143.67,38.24c0.55,0,0.67-0.07,0.48-0.69l-0.62-1.94    c-0.33-1.03-0.77-2.32-0.98-2.82c-0.19,0.55-0.67,1.84-1.03,2.94l-0.6,1.79c-0.22,0.65-0.1,0.72,0.5,0.72H143.67z"></path>			<path d="M157.35,40.95c0,1.12,0.1,1.89,0.41,2.27c0.31,0.41,0.74,0.6,2.49,0.6c2.18,0,2.85-0.07,4.26-2.85    c0.19-0.24,0.74-0.14,0.91,0.14c-0.12,1.24-0.69,3.23-1.03,3.88c-1.27-0.05-3.56-0.07-5.53-0.07h-3.21c-1.1,0-2.3,0.02-3.78,0.07    c-0.22-0.14-0.26-0.69-0.07-0.84l0.91-0.12c1.08-0.14,1.22-0.33,1.22-2.56v-8.9c0-2.23-0.14-2.44-1.22-2.58l-0.69-0.1    c-0.24-0.14-0.24-0.69,0.05-0.84c1.24,0.05,2.44,0.07,3.59,0.07c1.15,0,2.35-0.02,3.54-0.07c0.19,0.14,0.19,0.69,0,0.84    l-0.62,0.1c-1.08,0.17-1.22,0.36-1.22,2.58V40.95z"></path>			<path d="M169,30.92c0-0.57,0-0.69-0.57-0.69h-1.48c-1.75,0-2.25,0.96-2.97,2.7c-0.29,0.14-0.74,0.1-0.89-0.22    c0.5-1.65,0.62-3.13,0.79-4.07c0.1-0.07,0.22-0.12,0.34-0.12c0.12,0,0.24,0.02,0.33,0.1c0.12,0.41,0.19,0.5,2.01,0.5h8.9    c1.58,0,1.94-0.02,2.15-0.53c0.1-0.05,0.17-0.07,0.31-0.07c0.14,0,0.31,0.1,0.36,0.17c-0.24,0.81-0.41,2.75-0.36,4.12    c-0.12,0.22-0.77,0.26-0.89,0.07c-0.41-1.53-0.74-2.66-2.54-2.66h-1.44c-0.57,0-0.65,0.07-0.65,0.69v10.55    c0,2.23,0.14,2.42,1.22,2.56l0.96,0.12c0.17,0.14,0.17,0.69,0,0.84c-1.56-0.05-2.75-0.07-3.83-0.07c-1.15,0-2.39,0.02-4.07,0.07    c-0.19-0.14-0.19-0.69,0-0.84l1.08-0.12c1.08-0.12,1.22-0.33,1.22-2.56V30.92z"></path>			<path d="M195.61,36.95c0,5.22-3.49,8.35-8.64,8.35c-4.81,0-8.3-3.16-8.3-8.16c0-4.74,3.54-8.4,8.54-8.4    C192.19,28.75,195.61,32.1,195.61,36.95z M187.02,29.85c-2.94,0-4.52,2.75-4.52,6.75c0,2.92,1.03,7.61,4.93,7.61    c3.13,0,4.35-3.06,4.35-6.94C191.78,33.17,189.98,29.85,187.02,29.85z"></path>			<path d="M205.51,33c0-2.39-0.05-2.66-1.05-2.8l-0.65-0.1c-0.24-0.12-0.24-0.72,0.05-0.84c1.79-0.12,3.66-0.22,5.93-0.22    c2.03,0,3.78,0.31,4.69,0.86c1.39,0.81,2.11,2.01,2.11,3.54c0,2.13-1.44,3.04-2.54,3.59c-0.24,0.12-0.24,0.26-0.12,0.53    c1.58,3.21,2.56,5,3.71,5.98c0.62,0.5,1.24,0.65,1.6,0.67c0.22,0.12,0.22,0.48,0.1,0.62c-0.38,0.17-1.15,0.22-1.89,0.22    c-2.2,0-3.59-0.79-4.64-2.51c-0.77-1.27-1.32-2.44-1.87-3.71c-0.29-0.65-0.67-0.84-1.27-0.84c-0.84,0-0.88,0.05-0.88,0.53v2.94    c0,2.2,0.14,2.37,1.22,2.56l0.65,0.12c0.17,0.12,0.17,0.69,0,0.84c-1.27-0.05-2.37-0.07-3.52-0.07c-1.2,0-2.25,0.02-3.49,0.07    c-0.19-0.14-0.19-0.72,0-0.84l0.65-0.12c1.08-0.19,1.22-0.36,1.22-2.56V33z M208.79,36.04c0,0.84,0.07,0.91,1.48,0.91    c0.86,0,1.36-0.22,1.82-0.67c0.41-0.41,0.86-1.17,0.86-2.58c0-2.15-1.27-3.54-3.13-3.54c-0.98,0-1.03,0.07-1.03,1.22V36.04z"></path>			<path d="M236.09,36.95c0,5.22-3.49,8.35-8.64,8.35c-4.81,0-8.3-3.16-8.3-8.16c0-4.74,3.54-8.4,8.54-8.4    C232.67,28.75,236.09,32.1,236.09,36.95z M227.5,29.85c-2.94,0-4.52,2.75-4.52,6.75c0,2.92,1.03,7.61,4.93,7.61    c3.14,0,4.35-3.06,4.35-6.94C232.26,33.17,230.47,29.85,227.5,29.85z"></path>			<path d="M238.1,29.89c-0.19-0.19-0.19-0.77,0.07-0.84c0.81,0.05,1.84,0.07,3.01,0.07c0.79,0,1.48,0,2.34-0.07    c0,1.48,0.84,2.94,1.89,5.19l1.58,3.37c0.22,0.48,1.08,1.99,1.41,2.58c0.31-0.57,0.69-1.32,1.34-2.73l1.22-2.63    c1.15-2.46,1.75-3.73,2.27-5.79c1.1,0.1,1.65,0.07,2.37,0.07c0.79,0,1.89-0.02,2.75-0.07c0.26,0.14,0.26,0.6,0.07,0.84    l-0.69,0.12c-0.98,0.17-1.46,0.45-1.46,1.72c0,4.93,0.05,7.51,0.19,10.53c0.05,1.1,0.14,1.68,1.08,1.79l0.77,0.1    c0.19,0.19,0.19,0.74-0.05,0.84c-1.1-0.05-2.13-0.07-3.3-0.07c-1.08,0-2.39,0.02-3.54,0.07c-0.29-0.12-0.31-0.67-0.07-0.84    l0.72-0.1c1.1-0.14,1.1-0.43,1.1-1.89l-0.05-6.22v-2.73h-0.05c-1.77,3.83-3.69,7.82-5.26,11.87c-0.12,0.1-0.29,0.17-0.48,0.17    c-0.22,0-0.48-0.05-0.62-0.14c-0.93-2.97-3.88-8.9-5.22-12.01h-0.05c-0.1,1.56-0.12,2.61-0.14,3.85    c-0.02,1.56-0.05,3.95-0.05,5.38c0,1.2,0.14,1.53,1.1,1.67l0.93,0.14c0.19,0.17,0.14,0.72-0.05,0.84    c-0.89-0.05-1.91-0.07-2.82-0.07c-0.77,0-1.68,0.02-2.63,0.07c-0.31-0.1-0.31-0.72-0.1-0.84l0.43-0.07    c1.22-0.22,1.36-0.36,1.51-1.84c0.12-1.17,0.19-3.25,0.33-5.53c0.1-1.6,0.14-3.54,0.14-4.83c0-1.36-0.53-1.72-1.48-1.89    L238.1,29.89z"></path>			<path d="M264.15,39.51c-0.57,0-0.65,0.02-0.79,0.48l-0.93,2.78c-0.14,0.48-0.17,0.67-0.17,0.86c0,0.14,0.31,0.29,0.98,0.41    l0.72,0.12c0.14,0.17,0.19,0.72-0.05,0.84c-0.84-0.05-1.7-0.05-2.7-0.07c-0.81,0-1.36,0.07-2.46,0.07    c-0.26-0.14-0.24-0.65-0.07-0.84l0.65-0.07c0.57-0.07,1.05-0.26,1.46-1.2c0.41-0.96,0.86-2.11,1.51-3.83l2.18-5.84    c0.55-1.51,0.96-2.35,0.89-3.04c1.15-0.26,2.03-1.44,2.08-1.44c0.31,0,0.45,0.12,0.55,0.48c0.19,0.69,0.48,1.58,1.08,3.28    l3.25,9.38c0.5,1.44,0.72,1.99,1.6,2.13l0.91,0.14c0.14,0.12,0.19,0.69-0.02,0.84c-1.15-0.05-2.44-0.07-3.69-0.07    c-1.2,0-2.13,0.02-3.23,0.07c-0.26-0.14-0.31-0.65-0.05-0.84l0.77-0.12c0.55-0.1,0.65-0.26,0.65-0.41c0-0.17-0.17-0.74-0.45-1.63    l-0.65-2.06c-0.12-0.38-0.31-0.43-1.15-0.43H264.15z M266.88,38.24c0.55,0,0.67-0.07,0.48-0.69l-0.62-1.94    c-0.33-1.03-0.77-2.32-0.98-2.82c-0.19,0.55-0.67,1.84-1.03,2.94l-0.6,1.79c-0.22,0.65-0.1,0.72,0.5,0.72H266.88z"></path>			<path d="M281.35,44.51c-0.26-0.48-0.43-1.63-0.38-2.7c0.14-0.24,0.67-0.26,0.81-0.05c0.31,0.98,1.22,2.39,2.44,2.39    c0.72,0,1.24-0.43,1.24-1.24c0-0.89-0.77-1.39-1.58-1.79c-1.44-0.72-2.46-1.58-2.46-3.01c0-2.08,1.75-3.09,3.8-3.09    c1.22,0,2.3,0.31,2.56,0.5c0.24,0.53,0.36,1.48,0.36,2.39c-0.1,0.26-0.69,0.26-0.84,0.1c-0.48-1.39-1.08-1.89-1.87-1.89    c-0.69,0-1.2,0.41-1.2,1.05c0,0.55,0.45,1,1.53,1.53c1.63,0.79,2.63,1.79,2.63,3.35c-0.02,2.13-1.84,3.21-4.09,3.21    C282.95,45.25,282,45.02,281.35,44.51z"></path>			<path d="M290.37,43.32c0-1.12,0.86-1.99,1.94-1.99c1.15,0,1.94,0.96,1.94,1.99c0,1.1-0.79,1.94-1.94,1.94    C291.35,45.25,290.37,44.49,290.37,43.32z"></path>			<path d="M297.67,38.58c0-0.96,0-1.24-0.45-1.53l-0.33-0.22c-0.17-0.14-0.17-0.57,0-0.72c1.1-0.31,2.75-0.96,3.49-1.44    c0.19,0,0.33,0.07,0.43,0.22c-0.05,0.48-0.1,0.81-0.1,1.03c0,0.17,0.05,0.24,0.24,0.29c0.65-0.41,1.34-1.2,2.34-1.2    c0.65,0,1.32,0.5,1.32,1.41c0,1.1-0.77,1.56-1.53,1.56c-0.33,0-0.62-0.14-0.93-0.43c-0.55-0.45-0.77-0.48-0.91-0.48    c-0.33,0-0.45,0.53-0.45,1.44v3.64c0,1.68,0.1,1.87,0.88,1.94l0.77,0.07c0.19,0.14,0.19,0.69-0.02,0.84    c-1.15-0.05-2.11-0.07-3.23-0.07c-0.98,0-2.03,0.02-2.82,0.07c-0.22-0.14-0.22-0.69-0.02-0.84l0.45-0.05    c0.79-0.07,0.88-0.29,0.88-1.96V38.58z"></path>			<path d="M304.51,43.32c0-1.12,0.86-1.99,1.94-1.99c1.15,0,1.94,0.96,1.94,1.99c0,1.1-0.79,1.94-1.94,1.94    C305.49,45.25,304.51,44.49,304.51,43.32z"></path>			<path d="M311.62,31.62c0-0.96,0-1.22-0.48-1.51l-0.41-0.24c-0.17-0.14-0.17-0.57,0-0.72c1.03-0.24,2.46-0.81,3.66-1.34    c0.14,0,0.31,0.05,0.41,0.17c-0.05,0.98-0.07,1.99-0.07,3.49v10.67c0,1.68,0.1,1.87,0.93,1.96l0.41,0.05    c0.19,0.14,0.19,0.69-0.02,0.84c-0.79-0.05-1.79-0.07-2.87-0.07c-1.03,0-2.03,0.02-2.87,0.07c-0.22-0.14-0.22-0.69-0.02-0.84    l0.45-0.05c0.79-0.07,0.89-0.29,0.89-1.96V31.62z"></path>			<path d="M317.86,43.32c0-1.12,0.86-1.99,1.94-1.99c1.15,0,1.94,0.96,1.94,1.99c0,1.1-0.79,1.94-1.94,1.94    C318.84,45.25,317.86,44.49,317.86,43.32z"></path>		</g>		<g>			<path d="M25.7,53.07c0.27,0.12,0.5,0.29,0.68,0.51c0.15,0.19,0.28,0.39,0.37,0.62c0.09,0.23,0.14,0.48,0.14,0.77    c0,0.35-0.09,0.69-0.26,1.03c-0.18,0.34-0.47,0.57-0.87,0.71c0.34,0.14,0.58,0.33,0.72,0.58c0.14,0.25,0.21,0.63,0.21,1.14v0.49    c0,0.33,0.01,0.56,0.04,0.68c0.04,0.19,0.13,0.33,0.28,0.42v0.18h-1.69c-0.05-0.16-0.08-0.29-0.1-0.39    c-0.04-0.21-0.06-0.42-0.06-0.63l-0.01-0.68c-0.01-0.47-0.09-0.78-0.24-0.93c-0.15-0.16-0.45-0.23-0.87-0.23h-1.49v2.87h-1.49    v-7.32h3.5C25.05,52.89,25.43,52.95,25.7,53.07z M22.54,54.15v1.97h1.65c0.33,0,0.57-0.04,0.74-0.12    c0.29-0.14,0.43-0.41,0.43-0.82c0-0.44-0.14-0.74-0.42-0.89c-0.16-0.09-0.39-0.13-0.71-0.13H22.54z"></path>			<path d="M31.97,54.9c0.38,0.17,0.69,0.44,0.94,0.8c0.22,0.32,0.37,0.69,0.43,1.12c0.04,0.25,0.05,0.61,0.05,1.07h-3.94    c0.02,0.54,0.21,0.92,0.57,1.14c0.22,0.14,0.48,0.2,0.78,0.2c0.32,0,0.58-0.08,0.79-0.25c0.11-0.09,0.21-0.21,0.29-0.37h1.44    c-0.04,0.32-0.21,0.65-0.52,0.98c-0.48,0.53-1.16,0.79-2.04,0.79c-0.72,0-1.36-0.22-1.91-0.67c-0.55-0.44-0.83-1.17-0.83-2.17    c0-0.94,0.25-1.66,0.75-2.16c0.5-0.5,1.14-0.75,1.94-0.75C31.17,54.64,31.59,54.73,31.97,54.9z M29.85,56.12    c-0.2,0.21-0.33,0.49-0.38,0.84h2.44c-0.03-0.38-0.15-0.66-0.38-0.86c-0.23-0.19-0.51-0.29-0.84-0.29    C30.34,55.81,30.05,55.91,29.85,56.12z"></path>			<path d="M35.4,58.47c0.03,0.25,0.09,0.43,0.19,0.54c0.18,0.19,0.5,0.28,0.98,0.28c0.28,0,0.5-0.04,0.67-0.12    c0.16-0.08,0.25-0.21,0.25-0.37c0-0.16-0.07-0.28-0.2-0.36c-0.13-0.08-0.63-0.23-1.48-0.43c-0.62-0.15-1.05-0.34-1.3-0.57    c-0.25-0.23-0.38-0.55-0.38-0.97c0-0.5,0.2-0.93,0.59-1.29c0.39-0.36,0.95-0.54,1.66-0.54c0.68,0,1.23,0.13,1.65,0.4    c0.43,0.27,0.67,0.74,0.73,1.4h-1.41c-0.02-0.18-0.07-0.33-0.15-0.43c-0.16-0.19-0.42-0.29-0.8-0.29c-0.31,0-0.53,0.05-0.66,0.14    c-0.13,0.1-0.2,0.21-0.2,0.34c0,0.16,0.07,0.28,0.21,0.35c0.14,0.08,0.63,0.21,1.48,0.39c0.56,0.13,0.99,0.33,1.27,0.6    c0.28,0.27,0.42,0.61,0.42,1.02c0,0.54-0.2,0.97-0.6,1.31c-0.4,0.34-1.02,0.51-1.85,0.51c-0.85,0-1.48-0.18-1.89-0.54    c-0.41-0.36-0.61-0.82-0.61-1.37H35.4z"></path>			<path d="M39.6,55.84v-1.01h0.75v-1.51h1.4v1.51h0.88v1.01h-0.88v2.86c0,0.22,0.03,0.36,0.08,0.41c0.06,0.05,0.23,0.08,0.52,0.08    c0.04,0,0.09,0,0.14,0c0.05,0,0.1,0,0.14-0.01v1.06l-0.67,0.02c-0.67,0.02-1.13-0.09-1.37-0.35c-0.16-0.16-0.24-0.41-0.24-0.75    v-3.33H39.6z"></path>			<path d="M45.89,56.91c0.26-0.03,0.45-0.07,0.57-0.12c0.2-0.09,0.31-0.22,0.31-0.4c0-0.22-0.08-0.37-0.23-0.46    c-0.16-0.08-0.39-0.13-0.69-0.13c-0.34,0-0.58,0.08-0.72,0.25c-0.1,0.12-0.17,0.29-0.2,0.5h-1.37c0.03-0.47,0.16-0.86,0.4-1.17    c0.38-0.48,1.02-0.71,1.93-0.71c0.6,0,1.12,0.12,1.59,0.35c0.46,0.23,0.69,0.68,0.69,1.33v2.48c0,0.17,0,0.38,0.01,0.63    c0.01,0.19,0.04,0.31,0.08,0.38c0.05,0.07,0.12,0.12,0.21,0.16v0.21h-1.54c-0.04-0.11-0.07-0.21-0.09-0.31s-0.03-0.21-0.04-0.33    c-0.2,0.21-0.42,0.39-0.68,0.54c-0.31,0.18-0.65,0.26-1.04,0.26c-0.49,0-0.9-0.14-1.22-0.42c-0.32-0.28-0.48-0.68-0.48-1.19    c0-0.67,0.26-1.15,0.78-1.44c0.28-0.16,0.7-0.28,1.25-0.35L45.89,56.91z M46.76,57.57c-0.09,0.06-0.18,0.1-0.27,0.14    c-0.09,0.03-0.22,0.07-0.38,0.1l-0.32,0.06c-0.3,0.05-0.52,0.12-0.65,0.19c-0.22,0.13-0.33,0.33-0.33,0.6    c0,0.24,0.07,0.42,0.2,0.52c0.14,0.11,0.3,0.16,0.5,0.16c0.31,0,0.59-0.09,0.85-0.27c0.26-0.18,0.4-0.5,0.41-0.98V57.57z"></path>			<path d="M51.02,54.79v3.26c0,0.31,0.04,0.54,0.11,0.7c0.13,0.27,0.38,0.41,0.76,0.41c0.48,0,0.81-0.2,0.99-0.59    c0.09-0.21,0.14-0.49,0.14-0.84v-2.94h1.43v5.41h-1.38v-0.76c-0.01,0.02-0.05,0.07-0.1,0.15c-0.05,0.08-0.12,0.16-0.19,0.22    c-0.22,0.2-0.43,0.33-0.64,0.41c-0.21,0.07-0.45,0.11-0.73,0.11c-0.8,0-1.34-0.29-1.61-0.86c-0.16-0.32-0.23-0.79-0.23-1.41    v-3.26H51.02z"></path>			<path d="M59.03,54.66c0.02,0,0.06,0,0.12,0.01v1.45c-0.09-0.01-0.17-0.02-0.24-0.02c-0.07,0-0.13-0.01-0.17-0.01    c-0.57,0-0.95,0.19-1.15,0.56c-0.11,0.21-0.16,0.53-0.16,0.96v2.59h-1.43v-5.41h1.35v0.94c0.22-0.36,0.41-0.61,0.57-0.74    c0.26-0.22,0.61-0.33,1.03-0.33C58.99,54.66,59.01,54.66,59.03,54.66z"></path>			<path d="M61.64,54.14H60.2v-1.31h1.43V54.14z M60.2,54.79h1.43v5.41H60.2V54.79z"></path>			<path d="M65.56,56.81h5.71v1.08h-5.71V56.81z"></path>			<path d="M79.93,53.07c0.27,0.12,0.5,0.29,0.68,0.51c0.15,0.19,0.28,0.39,0.37,0.62c0.09,0.23,0.14,0.48,0.14,0.77    c0,0.35-0.09,0.69-0.26,1.03c-0.18,0.34-0.47,0.57-0.87,0.71c0.34,0.14,0.58,0.33,0.72,0.58c0.14,0.25,0.21,0.63,0.21,1.14v0.49    c0,0.33,0.01,0.56,0.04,0.68c0.04,0.19,0.13,0.33,0.28,0.42v0.18h-1.69c-0.05-0.16-0.08-0.29-0.1-0.39    c-0.04-0.21-0.06-0.42-0.06-0.63l-0.01-0.68c-0.01-0.47-0.09-0.78-0.24-0.93c-0.15-0.16-0.45-0.23-0.87-0.23h-1.49v2.87h-1.49    v-7.32h3.5C79.28,52.89,79.66,52.95,79.93,53.07z M76.77,54.15v1.97h1.65c0.33,0,0.57-0.04,0.74-0.12    c0.29-0.14,0.43-0.41,0.43-0.82c0-0.44-0.14-0.74-0.42-0.89c-0.16-0.09-0.39-0.13-0.71-0.13H76.77z"></path>			<path d="M84.13,54.14h-1.43v-1.31h1.43V54.14z M82.69,54.79h1.43v5.41h-1.43V54.79z"></path>			<path d="M86.8,58.47c0.03,0.25,0.09,0.43,0.19,0.54c0.18,0.19,0.5,0.28,0.98,0.28c0.28,0,0.5-0.04,0.67-0.12    c0.16-0.08,0.25-0.21,0.25-0.37c0-0.16-0.07-0.28-0.2-0.36c-0.13-0.08-0.63-0.23-1.48-0.43c-0.62-0.15-1.05-0.34-1.3-0.57    c-0.25-0.23-0.38-0.55-0.38-0.97c0-0.5,0.2-0.93,0.59-1.29c0.39-0.36,0.95-0.54,1.66-0.54c0.68,0,1.23,0.13,1.65,0.4    c0.43,0.27,0.67,0.74,0.73,1.4h-1.41c-0.02-0.18-0.07-0.33-0.15-0.43c-0.16-0.19-0.42-0.29-0.8-0.29c-0.31,0-0.53,0.05-0.66,0.14    c-0.13,0.1-0.2,0.21-0.2,0.34c0,0.16,0.07,0.28,0.21,0.35c0.14,0.08,0.63,0.21,1.48,0.39c0.56,0.13,0.99,0.33,1.27,0.6    c0.28,0.27,0.42,0.61,0.42,1.02c0,0.54-0.2,0.97-0.6,1.31c-0.4,0.34-1.02,0.51-1.85,0.51c-0.85,0-1.48-0.18-1.89-0.54    c-0.41-0.36-0.61-0.82-0.61-1.37H86.8z"></path>			<path d="M91,55.84v-1.01h0.75v-1.51h1.4v1.51h0.88v1.01h-0.88v2.86c0,0.22,0.03,0.36,0.08,0.41c0.06,0.05,0.23,0.08,0.52,0.08    c0.04,0,0.09,0,0.14,0c0.05,0,0.1,0,0.14-0.01v1.06l-0.67,0.02c-0.67,0.02-1.13-0.09-1.37-0.35c-0.16-0.16-0.24-0.41-0.24-0.75    v-3.33H91z"></path>			<path d="M98.16,54.66c0.02,0,0.06,0,0.12,0.01v1.45c-0.09-0.01-0.17-0.02-0.24-0.02c-0.07,0-0.13-0.01-0.17-0.01    c-0.57,0-0.95,0.19-1.15,0.56c-0.11,0.21-0.16,0.53-0.16,0.96v2.59h-1.43v-5.41h1.35v0.94c0.22-0.36,0.41-0.61,0.57-0.74    c0.26-0.22,0.61-0.33,1.03-0.33C98.11,54.66,98.14,54.66,98.16,54.66z"></path>			<path d="M100.72,54.79v3.26c0,0.31,0.04,0.54,0.11,0.7c0.13,0.27,0.38,0.41,0.76,0.41c0.48,0,0.81-0.2,0.99-0.59    c0.09-0.21,0.14-0.49,0.14-0.84v-2.94h1.43v5.41h-1.38v-0.76c-0.01,0.02-0.05,0.07-0.1,0.15c-0.05,0.08-0.12,0.16-0.19,0.22    c-0.22,0.2-0.43,0.33-0.64,0.41c-0.21,0.07-0.45,0.11-0.73,0.11c-0.8,0-1.34-0.29-1.61-0.86c-0.16-0.32-0.23-0.79-0.23-1.41    v-3.26H100.72z"></path>			<path d="M105.17,55.84v-1.01h0.75v-1.51h1.4v1.51h0.88v1.01h-0.88v2.86c0,0.22,0.03,0.36,0.08,0.41    c0.06,0.05,0.23,0.08,0.52,0.08c0.04,0,0.09,0,0.14,0c0.05,0,0.1,0,0.14-0.01v1.06l-0.67,0.02c-0.67,0.02-1.13-0.09-1.37-0.35    c-0.16-0.16-0.24-0.41-0.24-0.75v-3.33H105.17z"></path>			<path d="M108.76,55.84v-1.01h0.75v-1.51h1.4v1.51h0.88v1.01h-0.88v2.86c0,0.22,0.03,0.36,0.08,0.41    c0.06,0.05,0.23,0.08,0.52,0.08c0.04,0,0.09,0,0.14,0c0.05,0,0.1,0,0.14-0.01v1.06l-0.67,0.02c-0.67,0.02-1.13-0.09-1.37-0.35    c-0.16-0.16-0.24-0.41-0.24-0.75v-3.33H108.76z"></path>			<path d="M114.31,54.79v3.26c0,0.31,0.04,0.54,0.11,0.7c0.13,0.27,0.38,0.41,0.76,0.41c0.48,0,0.81-0.2,0.99-0.59    c0.09-0.21,0.14-0.49,0.14-0.84v-2.94h1.43v5.41h-1.38v-0.76c-0.01,0.02-0.05,0.07-0.1,0.15c-0.05,0.08-0.12,0.16-0.19,0.22    c-0.22,0.2-0.43,0.33-0.64,0.41c-0.21,0.07-0.45,0.11-0.73,0.11c-0.8,0-1.34-0.29-1.61-0.86c-0.15-0.32-0.23-0.79-0.23-1.41    v-3.26H114.31z"></path>			<path d="M122.32,54.66c0.02,0,0.06,0,0.12,0.01v1.45c-0.09-0.01-0.17-0.02-0.24-0.02c-0.07,0-0.13-0.01-0.17-0.01    c-0.57,0-0.95,0.19-1.15,0.56c-0.11,0.21-0.16,0.53-0.16,0.96v2.59h-1.42v-5.41h1.35v0.94c0.22-0.36,0.41-0.61,0.57-0.74    c0.26-0.22,0.61-0.33,1.03-0.33C122.28,54.66,122.31,54.66,122.32,54.66z"></path>			<path d="M125.62,56.91c0.26-0.03,0.45-0.07,0.57-0.12c0.2-0.09,0.31-0.22,0.31-0.4c0-0.22-0.08-0.37-0.23-0.46    c-0.16-0.08-0.39-0.13-0.69-0.13c-0.34,0-0.58,0.08-0.72,0.25c-0.1,0.12-0.17,0.29-0.2,0.5h-1.37c0.03-0.47,0.16-0.86,0.4-1.17    c0.38-0.48,1.02-0.71,1.93-0.71c0.6,0,1.12,0.12,1.59,0.35c0.46,0.23,0.69,0.68,0.69,1.33v2.48c0,0.17,0,0.38,0.01,0.63    c0.01,0.19,0.04,0.31,0.08,0.38c0.05,0.07,0.12,0.12,0.21,0.16v0.21h-1.54c-0.04-0.11-0.07-0.21-0.09-0.31    c-0.02-0.1-0.03-0.21-0.04-0.33c-0.2,0.21-0.42,0.39-0.68,0.54c-0.31,0.18-0.65,0.26-1.04,0.26c-0.49,0-0.9-0.14-1.22-0.42    c-0.32-0.28-0.48-0.68-0.48-1.19c0-0.67,0.26-1.15,0.78-1.44c0.28-0.16,0.7-0.28,1.25-0.35L125.62,56.91z M126.49,57.57    c-0.09,0.06-0.18,0.1-0.27,0.14c-0.09,0.03-0.22,0.07-0.38,0.1l-0.32,0.06c-0.3,0.05-0.52,0.12-0.65,0.19    c-0.22,0.13-0.33,0.33-0.33,0.6c0,0.24,0.07,0.42,0.2,0.52c0.14,0.11,0.3,0.16,0.5,0.16c0.31,0,0.59-0.09,0.85-0.27    c0.26-0.18,0.4-0.5,0.41-0.98V57.57z"></path>			<path d="M129.03,55.94v-1.15h4.28v1.18l-2.66,3.07h2.75v1.16h-4.56v-1.1l2.68-3.16H129.03z"></path>			<path d="M136.08,54.14h-1.43v-1.31h1.43V54.14z M134.64,54.79h1.43v5.41h-1.43V54.79z"></path>			<path d="M142.17,59.54c-0.46,0.56-1.15,0.85-2.08,0.85c-0.93,0-1.62-0.28-2.08-0.85c-0.46-0.56-0.69-1.24-0.69-2.04    c0-0.78,0.23-1.46,0.69-2.03c0.46-0.57,1.15-0.86,2.08-0.86c0.93,0,1.62,0.29,2.08,0.86c0.46,0.57,0.69,1.25,0.69,2.03    C142.85,58.29,142.62,58.97,142.17,59.54z M141.03,58.75c0.22-0.29,0.33-0.71,0.33-1.25c0-0.54-0.11-0.96-0.33-1.25    c-0.22-0.29-0.54-0.44-0.95-0.44c-0.41,0-0.73,0.15-0.96,0.44c-0.22,0.29-0.34,0.71-0.34,1.25c0,0.54,0.11,0.96,0.34,1.25    c0.22,0.29,0.54,0.44,0.96,0.44C140.49,59.19,140.81,59.05,141.03,58.75z"></path>			<path d="M148.43,55.1c0.35,0.29,0.53,0.78,0.53,1.46v3.64h-1.45v-3.29c0-0.28-0.04-0.5-0.11-0.66c-0.14-0.28-0.4-0.42-0.79-0.42    c-0.48,0-0.8,0.2-0.98,0.61c-0.09,0.22-0.14,0.49-0.14,0.82v2.93h-1.42v-5.4h1.37v0.79c0.18-0.28,0.35-0.48,0.51-0.6    c0.29-0.22,0.66-0.33,1.1-0.33C147.62,54.66,148.08,54.8,148.43,55.1z"></path>			<path d="M151.94,54.14h-1.43v-1.31h1.43V54.14z M150.5,54.79h1.43v5.41h-1.43V54.79z"></path>			<path d="M155.85,56.81h5.71v1.08h-5.71V56.81z"></path>			<path d="M166.93,60.2h-1.52v-7.32h1.52V60.2z"></path>			<path d="M175.2,54.81c0.23,0.09,0.44,0.26,0.63,0.49c0.15,0.19,0.25,0.42,0.31,0.7c0.03,0.18,0.05,0.45,0.05,0.8l-0.01,3.41    h-1.45v-3.45c0-0.2-0.03-0.37-0.1-0.51c-0.13-0.25-0.36-0.38-0.7-0.38c-0.39,0-0.66,0.16-0.81,0.49    c-0.08,0.17-0.11,0.38-0.11,0.62v3.22h-1.42v-3.22c0-0.32-0.03-0.55-0.1-0.7c-0.12-0.26-0.35-0.39-0.7-0.39    c-0.4,0-0.67,0.13-0.81,0.39c-0.08,0.15-0.11,0.37-0.11,0.67v3.26h-1.43v-5.4h1.38v0.79c0.18-0.28,0.34-0.48,0.5-0.6    c0.28-0.21,0.63-0.32,1.07-0.32c0.41,0,0.75,0.09,1,0.27c0.21,0.17,0.36,0.39,0.47,0.65c0.19-0.32,0.41-0.55,0.69-0.7    c0.29-0.15,0.62-0.22,0.97-0.22C174.74,54.67,174.97,54.71,175.2,54.81z"></path>			<path d="M182.25,55.37c0.44,0.47,0.66,1.15,0.66,2.06c0,0.95-0.22,1.68-0.65,2.18c-0.43,0.5-0.99,0.75-1.67,0.75    c-0.43,0-0.79-0.11-1.08-0.32c-0.16-0.12-0.31-0.29-0.46-0.52v2.82h-1.4v-7.54h1.36v0.8c0.15-0.23,0.32-0.42,0.49-0.56    c0.32-0.24,0.69-0.36,1.13-0.36C181.27,54.67,181.81,54.9,182.25,55.37z M181.16,56.38c-0.19-0.32-0.5-0.48-0.94-0.48    c-0.52,0-0.87,0.24-1.07,0.73c-0.1,0.26-0.15,0.59-0.15,0.98c0,0.63,0.17,1.07,0.51,1.33c0.2,0.15,0.44,0.22,0.71,0.22    c0.4,0,0.7-0.15,0.91-0.46c0.21-0.3,0.31-0.71,0.31-1.22C181.45,57.07,181.35,56.71,181.16,56.38z"></path>			<path d="M185.57,54.14h-1.43v-1.31h1.43V54.14z M184.13,54.79h1.43v5.41h-1.43V54.79z"></path>			<path d="M189.28,56.91c0.26-0.03,0.45-0.07,0.57-0.12c0.2-0.09,0.3-0.22,0.3-0.4c0-0.22-0.08-0.37-0.23-0.46    c-0.16-0.08-0.39-0.13-0.69-0.13c-0.34,0-0.58,0.08-0.72,0.25c-0.1,0.12-0.17,0.29-0.2,0.5h-1.37c0.03-0.47,0.16-0.86,0.4-1.17    c0.38-0.48,1.02-0.71,1.93-0.71c0.6,0,1.12,0.12,1.59,0.35c0.46,0.23,0.69,0.68,0.69,1.33v2.48c0,0.17,0,0.38,0.01,0.63    c0.01,0.19,0.04,0.31,0.08,0.38c0.05,0.07,0.12,0.12,0.21,0.16v0.21h-1.54c-0.04-0.11-0.07-0.21-0.09-0.31    c-0.02-0.1-0.03-0.21-0.04-0.33c-0.2,0.21-0.42,0.39-0.68,0.54c-0.31,0.18-0.65,0.26-1.04,0.26c-0.49,0-0.9-0.14-1.22-0.42    c-0.32-0.28-0.48-0.68-0.48-1.19c0-0.67,0.26-1.15,0.77-1.44c0.28-0.16,0.7-0.28,1.25-0.35L189.28,56.91z M190.15,57.57    c-0.09,0.06-0.18,0.1-0.27,0.14c-0.09,0.03-0.22,0.07-0.38,0.1l-0.32,0.06c-0.3,0.05-0.52,0.12-0.65,0.19    c-0.22,0.13-0.33,0.33-0.33,0.6c0,0.24,0.07,0.42,0.2,0.52c0.14,0.11,0.3,0.16,0.5,0.16c0.31,0,0.59-0.09,0.85-0.27    c0.26-0.18,0.4-0.5,0.41-0.98V57.57z"></path>			<path d="M197.36,55.1c0.35,0.29,0.53,0.78,0.53,1.46v3.64h-1.45v-3.29c0-0.28-0.04-0.5-0.11-0.66c-0.14-0.28-0.4-0.42-0.79-0.42    c-0.48,0-0.8,0.2-0.98,0.61c-0.09,0.22-0.14,0.49-0.14,0.82v2.93h-1.42v-5.4h1.37v0.79c0.18-0.28,0.35-0.48,0.51-0.6    c0.29-0.22,0.66-0.33,1.1-0.33C196.55,54.66,197.01,54.8,197.36,55.1z"></path>			<path d="M198.86,55.84v-1.01h0.75v-1.51h1.4v1.51h0.88v1.01h-0.88v2.86c0,0.22,0.03,0.36,0.08,0.41    c0.06,0.05,0.23,0.08,0.52,0.08c0.04,0,0.09,0,0.14,0c0.05,0,0.09,0,0.14-0.01v1.06l-0.67,0.02c-0.67,0.02-1.13-0.09-1.37-0.35    c-0.16-0.16-0.24-0.41-0.24-0.75v-3.33H198.86z"></path>			<path d="M204.46,54.14h-1.43v-1.31h1.43V54.14z M203.02,54.79h1.43v5.41h-1.43V54.79z"></path>			<path d="M208.37,56.81h5.71v1.08h-5.71V56.81z"></path>			<path d="M218.76,53.64c0.59-0.6,1.34-0.9,2.25-0.9c1.22,0,2.11,0.4,2.67,1.21c0.31,0.45,0.48,0.91,0.5,1.37h-1.53    c-0.1-0.35-0.22-0.62-0.37-0.79c-0.27-0.32-0.68-0.48-1.21-0.48c-0.54,0-0.97,0.22-1.29,0.67c-0.31,0.45-0.47,1.08-0.47,1.9    c0,0.82,0.17,1.44,0.5,1.84c0.33,0.41,0.75,0.61,1.26,0.61c0.53,0,0.92-0.18,1.2-0.53c0.15-0.19,0.28-0.47,0.38-0.85h1.52    c-0.13,0.8-0.47,1.45-1,1.95c-0.54,0.5-1.23,0.75-2.07,0.75c-1.04,0-1.86-0.34-2.46-1.01c-0.6-0.68-0.89-1.61-0.89-2.79    C217.74,55.32,218.08,54.34,218.76,53.64z"></path>			<path d="M230.01,59.54c-0.46,0.56-1.15,0.85-2.08,0.85c-0.93,0-1.62-0.28-2.08-0.85c-0.46-0.56-0.69-1.24-0.69-2.04    c0-0.78,0.23-1.46,0.69-2.03c0.46-0.57,1.15-0.86,2.08-0.86c0.93,0,1.62,0.29,2.08,0.86c0.46,0.57,0.69,1.25,0.69,2.03    C230.69,58.29,230.46,58.97,230.01,59.54z M228.87,58.75c0.22-0.29,0.33-0.71,0.33-1.25c0-0.54-0.11-0.96-0.33-1.25    c-0.22-0.29-0.54-0.44-0.95-0.44c-0.41,0-0.73,0.15-0.96,0.44c-0.22,0.29-0.33,0.71-0.33,1.25c0,0.54,0.11,0.96,0.33,1.25    c0.22,0.29,0.54,0.44,0.96,0.44C228.33,59.19,228.65,59.05,228.87,58.75z"></path>			<path d="M233,58.47c0.03,0.25,0.09,0.43,0.19,0.54c0.18,0.19,0.5,0.28,0.98,0.28c0.28,0,0.5-0.04,0.67-0.12    c0.16-0.08,0.25-0.21,0.25-0.37c0-0.16-0.07-0.28-0.2-0.36c-0.13-0.08-0.63-0.23-1.48-0.43c-0.62-0.15-1.05-0.34-1.3-0.57    c-0.25-0.23-0.38-0.55-0.38-0.97c0-0.5,0.2-0.93,0.59-1.29c0.39-0.36,0.95-0.54,1.66-0.54c0.68,0,1.23,0.13,1.65,0.4    c0.43,0.27,0.67,0.74,0.73,1.4h-1.42c-0.02-0.18-0.07-0.33-0.15-0.43c-0.16-0.19-0.42-0.29-0.8-0.29c-0.31,0-0.53,0.05-0.66,0.14    c-0.13,0.1-0.2,0.21-0.2,0.34c0,0.16,0.07,0.28,0.21,0.35c0.14,0.08,0.63,0.21,1.48,0.39c0.56,0.13,0.99,0.33,1.27,0.6    c0.28,0.27,0.42,0.61,0.42,1.02c0,0.54-0.2,0.97-0.6,1.31c-0.4,0.34-1.02,0.51-1.85,0.51c-0.85,0-1.48-0.18-1.89-0.54    c-0.41-0.36-0.61-0.82-0.61-1.37H233z"></path>			<path d="M237.21,55.84v-1.01h0.75v-1.51h1.4v1.51h0.88v1.01h-0.88v2.86c0,0.22,0.03,0.36,0.08,0.41    c0.06,0.05,0.23,0.08,0.52,0.08c0.04,0,0.09,0,0.14,0c0.05,0,0.1,0,0.14-0.01v1.06l-0.67,0.02c-0.67,0.02-1.13-0.09-1.37-0.35    c-0.16-0.16-0.24-0.41-0.24-0.75v-3.33H237.21z"></path>			<path d="M244.36,54.66c0.02,0,0.06,0,0.12,0.01v1.45c-0.09-0.01-0.17-0.02-0.24-0.02c-0.07,0-0.13-0.01-0.17-0.01    c-0.57,0-0.95,0.19-1.15,0.56c-0.11,0.21-0.16,0.53-0.16,0.96v2.59h-1.42v-5.41h1.35v0.94c0.22-0.36,0.41-0.61,0.57-0.74    c0.26-0.22,0.61-0.33,1.03-0.33C244.32,54.66,244.34,54.66,244.36,54.66z"></path>			<path d="M246.92,54.79v3.26c0,0.31,0.04,0.54,0.11,0.7c0.13,0.27,0.38,0.41,0.76,0.41c0.48,0,0.81-0.2,0.99-0.59    c0.09-0.21,0.14-0.49,0.14-0.84v-2.94h1.43v5.41h-1.37v-0.76c-0.01,0.02-0.05,0.07-0.1,0.15c-0.05,0.08-0.12,0.16-0.19,0.22    c-0.22,0.2-0.43,0.33-0.64,0.41c-0.21,0.07-0.45,0.11-0.73,0.11c-0.8,0-1.34-0.29-1.61-0.86c-0.15-0.32-0.23-0.79-0.23-1.41    v-3.26H246.92z"></path>			<path d="M251.62,55.94v-1.15h4.28v1.18l-2.66,3.07H256v1.16h-4.56v-1.1l2.68-3.16H251.62z"></path>			<path d="M258.67,54.14h-1.43v-1.31h1.43V54.14z M257.24,54.79h1.43v5.41h-1.43V54.79z"></path>			<path d="M264.76,59.54c-0.46,0.56-1.15,0.85-2.08,0.85c-0.93,0-1.62-0.28-2.08-0.85c-0.46-0.56-0.69-1.24-0.69-2.04    c0-0.78,0.23-1.46,0.69-2.03c0.46-0.57,1.15-0.86,2.08-0.86c0.93,0,1.62,0.29,2.08,0.86c0.46,0.57,0.69,1.25,0.69,2.03    C265.44,58.29,265.21,58.97,264.76,59.54z M263.63,58.75c0.22-0.29,0.33-0.71,0.33-1.25c0-0.54-0.11-0.96-0.33-1.25    c-0.22-0.29-0.54-0.44-0.95-0.44c-0.41,0-0.73,0.15-0.96,0.44c-0.22,0.29-0.34,0.71-0.34,1.25c0,0.54,0.11,0.96,0.34,1.25    c0.22,0.29,0.54,0.44,0.96,0.44C263.09,59.19,263.4,59.05,263.63,58.75z"></path>			<path d="M271.02,55.1c0.35,0.29,0.53,0.78,0.53,1.46v3.64h-1.45v-3.29c0-0.28-0.04-0.5-0.11-0.66c-0.14-0.28-0.4-0.42-0.79-0.42    c-0.48,0-0.8,0.2-0.98,0.61c-0.09,0.22-0.14,0.49-0.14,0.82v2.93h-1.42v-5.4h1.37v0.79c0.18-0.28,0.35-0.48,0.51-0.6    c0.29-0.22,0.66-0.33,1.1-0.33C270.21,54.66,270.67,54.8,271.02,55.1z"></path>			<path d="M274.53,54.14h-1.43v-1.31h1.43V54.14z M273.09,54.79h1.43v5.41h-1.43V54.79z"></path>			<path d="M284.16,55.16c-0.12-0.5-0.4-0.85-0.85-1.05c-0.25-0.11-0.53-0.16-0.84-0.16c-0.59,0-1.07,0.22-1.45,0.67    c-0.38,0.44-0.57,1.11-0.57,2c0,0.9,0.21,1.53,0.62,1.91c0.41,0.37,0.88,0.56,1.4,0.56c0.51,0,0.93-0.15,1.26-0.44    c0.33-0.29,0.53-0.68,0.61-1.16h-1.69v-1.22h3.05v3.93h-1.01l-0.15-0.91c-0.29,0.35-0.56,0.59-0.79,0.73    c-0.4,0.25-0.9,0.37-1.49,0.37c-0.97,0-1.76-0.34-2.38-1.01c-0.65-0.67-0.97-1.6-0.97-2.77c0-1.18,0.33-2.13,0.98-2.85    c0.65-0.71,1.51-1.07,2.59-1.07c0.93,0,1.68,0.24,2.24,0.71c0.56,0.47,0.89,1.06,0.97,1.77H284.16z"></path>			<path d="M290.77,54.9c0.38,0.17,0.69,0.44,0.93,0.8c0.22,0.32,0.37,0.69,0.43,1.12c0.04,0.25,0.05,0.61,0.05,1.07h-3.94    c0.02,0.54,0.21,0.92,0.57,1.14c0.22,0.14,0.48,0.2,0.78,0.2c0.32,0,0.58-0.08,0.79-0.25c0.11-0.09,0.21-0.21,0.29-0.37h1.44    c-0.04,0.32-0.21,0.65-0.52,0.98c-0.48,0.53-1.16,0.79-2.04,0.79c-0.72,0-1.36-0.22-1.91-0.67c-0.55-0.44-0.83-1.17-0.83-2.17    c0-0.94,0.25-1.66,0.75-2.16c0.5-0.5,1.14-0.75,1.94-0.75C289.97,54.64,290.39,54.73,290.77,54.9z M288.65,56.12    c-0.2,0.21-0.33,0.49-0.38,0.84h2.44c-0.03-0.38-0.15-0.66-0.38-0.86c-0.23-0.19-0.51-0.29-0.84-0.29    C289.13,55.81,288.85,55.91,288.65,56.12z"></path>			<path d="M297.46,55.1c0.35,0.29,0.53,0.78,0.53,1.46v3.64h-1.45v-3.29c0-0.28-0.04-0.5-0.11-0.66c-0.14-0.28-0.4-0.42-0.79-0.42    c-0.48,0-0.8,0.2-0.98,0.61c-0.09,0.22-0.14,0.49-0.14,0.82v2.93h-1.42v-5.4h1.37v0.79c0.18-0.28,0.35-0.48,0.51-0.6    c0.29-0.22,0.66-0.33,1.1-0.33C296.65,54.66,297.11,54.8,297.46,55.1z"></path>			<path d="M303.04,54.9c0.38,0.17,0.69,0.44,0.94,0.8c0.22,0.32,0.36,0.69,0.43,1.12c0.04,0.25,0.05,0.61,0.05,1.07h-3.94    c0.02,0.54,0.21,0.92,0.57,1.14c0.22,0.14,0.48,0.2,0.78,0.2c0.32,0,0.58-0.08,0.79-0.25c0.11-0.09,0.21-0.21,0.29-0.37h1.44    c-0.04,0.32-0.21,0.65-0.53,0.98c-0.48,0.53-1.16,0.79-2.04,0.79c-0.72,0-1.36-0.22-1.91-0.67c-0.55-0.44-0.83-1.17-0.83-2.17    c0-0.94,0.25-1.66,0.75-2.16c0.5-0.5,1.14-0.75,1.94-0.75C302.24,54.64,302.66,54.73,303.04,54.9z M300.93,56.12    c-0.2,0.21-0.33,0.49-0.38,0.84h2.44c-0.03-0.38-0.15-0.66-0.38-0.86c-0.23-0.19-0.51-0.29-0.84-0.29    C301.41,55.81,301.12,55.91,300.93,56.12z"></path>			<path d="M308.38,54.66c0.02,0,0.06,0,0.12,0.01v1.45c-0.09-0.01-0.17-0.02-0.24-0.02c-0.07,0-0.13-0.01-0.17-0.01    c-0.57,0-0.95,0.19-1.15,0.56c-0.11,0.21-0.16,0.53-0.16,0.96v2.59h-1.42v-5.41h1.35v0.94c0.22-0.36,0.41-0.61,0.57-0.74    c0.26-0.22,0.61-0.33,1.03-0.33C308.34,54.66,308.36,54.66,308.38,54.66z"></path>			<path d="M311.68,56.91c0.26-0.03,0.45-0.07,0.57-0.12c0.2-0.09,0.3-0.22,0.3-0.4c0-0.22-0.08-0.37-0.23-0.46    c-0.16-0.08-0.39-0.13-0.69-0.13c-0.34,0-0.58,0.08-0.72,0.25c-0.1,0.12-0.17,0.29-0.2,0.5h-1.37c0.03-0.47,0.16-0.86,0.4-1.17    c0.38-0.48,1.02-0.71,1.93-0.71c0.6,0,1.12,0.12,1.59,0.35c0.46,0.23,0.69,0.68,0.69,1.33v2.48c0,0.17,0,0.38,0.01,0.63    c0.01,0.19,0.04,0.31,0.08,0.38c0.05,0.07,0.12,0.12,0.21,0.16v0.21h-1.54c-0.04-0.11-0.07-0.21-0.09-0.31    c-0.02-0.1-0.03-0.21-0.04-0.33c-0.2,0.21-0.42,0.39-0.68,0.54c-0.31,0.18-0.65,0.26-1.04,0.26c-0.49,0-0.9-0.14-1.22-0.42    c-0.32-0.28-0.48-0.68-0.48-1.19c0-0.67,0.26-1.15,0.77-1.44c0.28-0.16,0.7-0.28,1.25-0.35L311.68,56.91z M312.54,57.57    c-0.09,0.06-0.18,0.1-0.27,0.14c-0.09,0.03-0.22,0.07-0.38,0.1l-0.32,0.06c-0.3,0.05-0.52,0.12-0.65,0.19    c-0.22,0.13-0.33,0.33-0.33,0.6c0,0.24,0.07,0.42,0.2,0.52c0.14,0.11,0.3,0.16,0.5,0.16c0.31,0,0.59-0.09,0.85-0.27    c0.26-0.18,0.4-0.5,0.41-0.98V57.57z"></path>			<path d="M316.84,60.2h-1.42v-7.32h1.42V60.2z"></path>			<path d="M319.88,54.14h-1.43v-1.31h1.43V54.14z M318.44,54.79h1.43v5.41h-1.43V54.79z"></path>		</g>	</g>	<g>		<path class="st2" d="M103.66,71.12h2.05l1.18,5.57l1.21-5.57h2.11l-2.24,7.74h-2.08l-1.21-5.64l-1.23,5.64h-2.1l-2.17-7.74h2.17   l1.21,5.55L103.66,71.12z"></path>		<path class="st2" d="M115.41,71.12h2.05l1.18,5.57l1.21-5.57h2.11l-2.24,7.74h-2.08l-1.21-5.64l-1.23,5.64h-2.1l-2.17-7.74h2.17   l1.21,5.55L115.41,71.12z"></path>		<path class="st2" d="M127.16,71.12h2.05l1.18,5.57l1.21-5.57h2.11l-2.24,7.74h-2.08l-1.21-5.64l-1.23,5.64h-2.1l-2.17-7.74h2.17   l1.21,5.55L127.16,71.12z"></path>		<path class="st2" d="M134.69,76.73h2.15v2.12h-2.15V76.73z"></path>		<path class="st2" d="M142.27,74.15c0.38-0.05,0.65-0.11,0.81-0.18c0.29-0.12,0.44-0.31,0.44-0.58c0-0.32-0.11-0.54-0.33-0.66   c-0.22-0.12-0.55-0.18-0.98-0.18c-0.48,0-0.83,0.12-1.03,0.35c-0.14,0.18-0.24,0.41-0.29,0.71h-1.95   c0.04-0.68,0.23-1.23,0.57-1.67c0.54-0.68,1.46-1.02,2.77-1.02c0.85,0,1.61,0.17,2.27,0.5c0.66,0.34,0.99,0.97,0.99,1.9v3.55   c0,0.25,0,0.54,0.01,0.9c0.01,0.27,0.05,0.44,0.12,0.54c0.07,0.09,0.17,0.17,0.3,0.23v0.3h-2.2c-0.06-0.16-0.1-0.3-0.13-0.44   c-0.02-0.14-0.04-0.29-0.06-0.47c-0.28,0.3-0.6,0.56-0.97,0.77c-0.44,0.25-0.93,0.38-1.49,0.38c-0.7,0-1.29-0.2-1.75-0.6   c-0.46-0.4-0.69-0.97-0.69-1.7c0-0.95,0.37-1.64,1.11-2.07c0.41-0.23,1-0.4,1.79-0.5L142.27,74.15z M143.51,75.09   c-0.13,0.08-0.26,0.15-0.39,0.2c-0.13,0.05-0.31,0.1-0.54,0.14l-0.46,0.09c-0.43,0.08-0.74,0.17-0.93,0.28   c-0.32,0.18-0.48,0.47-0.48,0.86c0,0.35,0.1,0.6,0.29,0.75c0.19,0.15,0.43,0.23,0.71,0.23c0.44,0,0.85-0.13,1.22-0.38   c0.37-0.26,0.57-0.72,0.58-1.4V75.09z"></path>		<path class="st2" d="M154.24,71.95c0.63,0.67,0.95,1.65,0.95,2.94c0,1.36-0.31,2.4-0.93,3.12c-0.62,0.71-1.41,1.07-2.38,1.07   c-0.62,0-1.13-0.15-1.54-0.46c-0.22-0.17-0.44-0.42-0.66-0.75v4.03h-2V71.12h1.94v1.14c0.22-0.34,0.45-0.6,0.7-0.8   c0.45-0.35,0.99-0.52,1.62-0.52C152.84,70.95,153.61,71.28,154.24,71.95z M152.69,73.4c-0.28-0.46-0.72-0.69-1.34-0.69   c-0.74,0-1.25,0.35-1.53,1.04c-0.14,0.37-0.22,0.84-0.22,1.41c0,0.9,0.24,1.53,0.72,1.9c0.29,0.21,0.63,0.32,1.02,0.32   c0.57,0,1-0.22,1.3-0.65c0.3-0.44,0.45-1.02,0.45-1.74C153.1,74.39,152.96,73.86,152.69,73.4z"></path>		<path class="st2" d="M163.56,71.95c0.63,0.67,0.95,1.65,0.95,2.94c0,1.36-0.31,2.4-0.93,3.12c-0.62,0.71-1.41,1.07-2.38,1.07   c-0.62,0-1.13-0.15-1.54-0.46c-0.22-0.17-0.44-0.42-0.66-0.75v4.03h-2V71.12h1.94v1.14c0.22-0.34,0.45-0.6,0.7-0.8   c0.45-0.35,0.99-0.52,1.62-0.52C162.16,70.95,162.93,71.28,163.56,71.95z M162.01,73.4c-0.28-0.46-0.72-0.69-1.34-0.69   c-0.74,0-1.25,0.35-1.53,1.04c-0.14,0.37-0.22,0.84-0.22,1.41c0,0.9,0.24,1.53,0.72,1.9c0.29,0.21,0.63,0.32,1.02,0.32   c0.57,0,1-0.22,1.3-0.65c0.3-0.44,0.45-1.02,0.45-1.74C162.42,74.39,162.28,73.86,162.01,73.4z"></path>		<path class="st2" d="M169.44,74.15c0.38-0.05,0.65-0.11,0.81-0.18c0.29-0.12,0.44-0.31,0.44-0.58c0-0.32-0.11-0.54-0.33-0.66   c-0.22-0.12-0.55-0.18-0.98-0.18c-0.48,0-0.83,0.12-1.03,0.35c-0.14,0.18-0.24,0.41-0.29,0.71h-1.95   c0.04-0.68,0.23-1.23,0.57-1.67c0.54-0.68,1.46-1.02,2.77-1.02c0.85,0,1.61,0.17,2.27,0.5c0.66,0.34,0.99,0.97,0.99,1.9v3.55   c0,0.25,0,0.54,0.01,0.9c0.01,0.27,0.05,0.44,0.12,0.54c0.07,0.09,0.17,0.17,0.3,0.23v0.3h-2.2c-0.06-0.16-0.1-0.3-0.13-0.44   c-0.02-0.14-0.04-0.29-0.06-0.47c-0.28,0.3-0.6,0.56-0.97,0.77c-0.44,0.25-0.93,0.38-1.49,0.38c-0.7,0-1.29-0.2-1.75-0.6   c-0.46-0.4-0.69-0.97-0.69-1.7c0-0.95,0.37-1.64,1.11-2.07c0.41-0.23,1-0.4,1.79-0.5L169.44,74.15z M170.67,75.09   c-0.13,0.08-0.26,0.15-0.39,0.2c-0.13,0.05-0.31,0.1-0.54,0.14l-0.46,0.09c-0.43,0.08-0.74,0.17-0.93,0.28   c-0.32,0.18-0.48,0.47-0.48,0.86c0,0.35,0.1,0.6,0.29,0.75c0.19,0.15,0.43,0.23,0.71,0.23c0.44,0,0.85-0.13,1.22-0.38   c0.37-0.26,0.57-0.72,0.58-1.4V75.09z"></path>		<path class="st2" d="M176.96,78.86h-2.02V68.39h2.02V78.86z"></path>		<path class="st2" d="M178.58,72.63v-1.44h1.08v-2.16h2v2.16h1.26v1.44h-1.26v4.09c0,0.32,0.04,0.52,0.12,0.59   c0.08,0.08,0.33,0.12,0.74,0.12c0.06,0,0.13,0,0.2,0c0.07,0,0.14-0.01,0.2-0.01v1.51l-0.96,0.04c-0.96,0.03-1.61-0.13-1.96-0.5   c-0.23-0.23-0.34-0.59-0.34-1.07v-4.77H178.58z"></path>		<path class="st2" d="M191.11,77.91c-0.65,0.81-1.65,1.21-2.98,1.21c-1.33,0-2.32-0.4-2.98-1.21c-0.65-0.81-0.98-1.78-0.98-2.91   c0-1.12,0.33-2.08,0.98-2.9c0.65-0.82,1.65-1.23,2.98-1.23c1.33,0,2.32,0.41,2.98,1.23c0.65,0.82,0.98,1.79,0.98,2.9   C192.09,76.13,191.76,77.1,191.11,77.91z M189.49,76.79c0.32-0.42,0.48-1.02,0.48-1.79c0-0.78-0.16-1.37-0.48-1.79   c-0.32-0.42-0.77-0.63-1.36-0.63c-0.59,0-1.05,0.21-1.37,0.63c-0.32,0.42-0.48,1.02-0.48,1.79c0,0.78,0.16,1.37,0.48,1.79   c0.32,0.42,0.78,0.63,1.37,0.63C188.72,77.42,189.17,77.21,189.49,76.79z"></path>		<path class="st2" d="M198.27,70.94c0.03,0,0.08,0.01,0.17,0.01v2.07c-0.13-0.01-0.24-0.02-0.34-0.03c-0.1,0-0.18-0.01-0.24-0.01   c-0.81,0-1.36,0.27-1.64,0.8c-0.16,0.3-0.23,0.76-0.23,1.38v3.7h-2.04v-7.74h1.93v1.35c0.31-0.52,0.58-0.87,0.82-1.06   c0.38-0.32,0.87-0.48,1.48-0.48C198.21,70.93,198.25,70.93,198.27,70.94z"></path>		<path class="st2" d="M206.52,77.91c-0.65,0.81-1.65,1.21-2.98,1.21c-1.33,0-2.32-0.4-2.98-1.21c-0.65-0.81-0.98-1.78-0.98-2.91   c0-1.12,0.33-2.08,0.98-2.9c0.65-0.82,1.64-1.23,2.98-1.23c1.33,0,2.32,0.41,2.98,1.23c0.65,0.82,0.98,1.79,0.98,2.9   C207.5,76.13,207.18,77.1,206.52,77.91z M204.9,76.79c0.32-0.42,0.48-1.02,0.48-1.79c0-0.78-0.16-1.37-0.48-1.79   c-0.32-0.42-0.77-0.63-1.36-0.63c-0.59,0-1.05,0.21-1.37,0.63c-0.32,0.42-0.48,1.02-0.48,1.79c0,0.78,0.16,1.37,0.48,1.79   c0.32,0.42,0.78,0.63,1.37,0.63C204.13,77.42,204.59,77.21,204.9,76.79z"></path>		<path class="st2" d="M219.05,71.15c0.33,0.13,0.63,0.36,0.9,0.7c0.22,0.27,0.36,0.6,0.44,0.99c0.05,0.26,0.07,0.64,0.07,1.14   l-0.01,4.88h-2.07v-4.93c0-0.29-0.05-0.53-0.14-0.72c-0.18-0.36-0.51-0.54-0.99-0.54c-0.56,0-0.94,0.23-1.16,0.7   c-0.11,0.25-0.16,0.54-0.16,0.89v4.61h-2.04v-4.61c0-0.46-0.05-0.79-0.14-1c-0.17-0.37-0.5-0.56-1-0.56   c-0.58,0-0.97,0.19-1.16,0.56c-0.11,0.21-0.16,0.53-0.16,0.95v4.66h-2.05v-7.73h1.97v1.13c0.25-0.4,0.49-0.69,0.71-0.86   c0.39-0.3,0.9-0.45,1.53-0.45c0.59,0,1.07,0.13,1.43,0.39c0.29,0.24,0.52,0.55,0.67,0.93c0.27-0.45,0.59-0.79,0.99-1   c0.42-0.21,0.88-0.32,1.39-0.32C218.38,70.95,218.71,71.01,219.05,71.15z"></path>		<path class="st2" d="M225.82,74.15c0.38-0.05,0.65-0.11,0.81-0.18c0.29-0.12,0.44-0.31,0.44-0.58c0-0.32-0.11-0.54-0.33-0.66   c-0.22-0.12-0.55-0.18-0.98-0.18c-0.48,0-0.83,0.12-1.03,0.35c-0.14,0.18-0.24,0.41-0.29,0.71h-1.95   c0.04-0.68,0.23-1.23,0.57-1.67c0.54-0.68,1.46-1.02,2.77-1.02c0.85,0,1.61,0.17,2.27,0.5c0.66,0.34,0.99,0.97,0.99,1.9v3.55   c0,0.25,0,0.54,0.01,0.9c0.01,0.27,0.05,0.44,0.12,0.54c0.07,0.09,0.17,0.17,0.3,0.23v0.3h-2.2c-0.06-0.16-0.1-0.3-0.13-0.44   c-0.02-0.14-0.04-0.29-0.06-0.47c-0.28,0.3-0.6,0.56-0.97,0.77c-0.44,0.25-0.93,0.38-1.49,0.38c-0.7,0-1.29-0.2-1.75-0.6   c-0.46-0.4-0.69-0.97-0.69-1.7c0-0.95,0.37-1.64,1.11-2.07c0.41-0.23,1-0.4,1.79-0.5L225.82,74.15z M227.06,75.09   c-0.13,0.08-0.26,0.15-0.39,0.2c-0.13,0.05-0.31,0.1-0.54,0.14l-0.46,0.09c-0.43,0.08-0.74,0.17-0.93,0.28   c-0.32,0.18-0.48,0.47-0.48,0.86c0,0.35,0.1,0.6,0.29,0.75c0.19,0.15,0.43,0.23,0.71,0.23c0.44,0,0.85-0.13,1.22-0.38   c0.37-0.26,0.57-0.72,0.58-1.4V75.09z"></path>		<path class="st2" d="M231.25,76.73h2.15v2.12h-2.15V76.73z"></path>		<g>			<path class="st2" d="M237.66,78.86h-2.02V71.9h2.02V78.86z"></path>			<path class="st2" d="M239.28,72.63v-1.44h1.08v-2.16h2v2.16h1.26v1.44h-1.26v4.09c0,0.32,0.04,0.52,0.12,0.59    c0.08,0.08,0.33,0.12,0.74,0.12c0.06,0,0.13,0,0.2,0c0.07,0,0.14-0.01,0.2-0.01v1.51l-0.96,0.04c-0.96,0.03-1.61-0.13-1.96-0.5    c-0.23-0.23-0.34-0.59-0.34-1.07v-4.77H239.28z"></path>			<path class="st2" d="M235.64,69.03h2.02v2.12h-2.02V69.03z"></path>		</g>	</g></g></svg>